<svg viewBox="0 0 111 19" xmlns="http://www.w3.org/2000/svg"><mask id="a" height="9.5" maskUnits="userSpaceOnUse" width="11.5" x="0" y=".2"><path d="M.2 4.3v5.2h2.4V4.2c0-1.4 1.3-2.4 3.1-2.4C8 1.8 8.8 3 8.8 4.2v5.2h2.4V4.3C11.2 1.9 9 .4 5.7.4 2.5.4.2 2 .2 4.3z" fill="#fff"/></mask><mask id="b" height="10.1" maskUnits="userSpaceOnUse" width="13.6" x=".1" y=".6"><path d="M.3 5.6c0 2.6 3 4.8 6.6 4.8 2.6 0 4.8-.9 5.8-2.4H10c-.6.7-1.7 1.1-3.1 1.1-2.3 0-4.2-1.5-4.2-3.5S4.5 2 6.9 2c1.9 0 3.4.8 4 2.2l.3.8H5.7v1.1h7.7v-.3c0-1.1-.3-2-1-2.8C11.3 1.6 9.3.8 7 .8 3.3.8.3 3 .3 5.6z" fill="#fff"/></mask><mask id="c" height="11.8" maskUnits="userSpaceOnUse" width="11.8" x="-.2" y="-.1"><path d="M0 .1v7.6c0 2.2 2.3 3.7 5.7 3.7s5.7-1.5 5.7-3.7v-.2H8.9v.4c0 1.1-1 2.3-3.2 2.3S2.6 9 2.6 7.9v-4h8.7V2.6H2.6V.1z" fill="#fff"/></mask><mask id="d" height="14.7" maskUnits="userSpaceOnUse" width="13.1" x=".7" y=".3"><path d="M.9 5.3C.9 8 3.4 9.8 7 9.8h1.7V8.4H7.4c-2.4 0-4-1.3-4-3.1 0-1.9 1.8-3.4 3.9-3.4 2.2 0 3.9 1.5 3.9 3.4v4.5c0 2.2-1.5 3.5-4 3.5-1 0-2.3-.2-2.9-1H1.5c.8 1.5 3 2.5 5.7 2.5 3.8 0 6.4-2 6.4-4.9V5.3c0-2.7-2.7-4.8-6.3-4.8S.9 2.5.9 5.3z" fill="#fff"/></mask><mask id="e" height="9.2" maskUnits="userSpaceOnUse" width="11.8" x="-.2" y=".6"><path d="M8.9.8v5.1c0 1.4-1.4 2.3-3.2 2.3-2.3 0-3.2-1.2-3.2-2.3V.8H0v5c0 2.3 2.2 3.8 5.6 3.8s5.7-1.5 5.7-3.8v-5z" fill="#fff"/></mask><mask id="f" height="9.2" maskUnits="userSpaceOnUse" width="13.6" x="-.2" y=".6"><path d="M0 5.2c0 2.4 2.7 4.3 6.2 4.3h1.9V8.2H6.7c-2.4 0-4.2-1.3-4.2-3s1.8-3.1 4.1-3.1c2.2 0 4.1 1.4 4.1 3.2v4.2h2.5V5.3c0-2.6-2.8-4.5-6.5-4.5C2.9.8 0 2.7 0 5.2z" fill="#fff"/></mask><mask id="g" height="9.2" maskUnits="userSpaceOnUse" width="11.8" x=".6" y=".6"><path d="M.9 4.5v5h2.5v-5c0-1.4 1.4-2.3 3.2-2.3 2.3 0 3.1 1.2 3.2 2.3h2.5C12.2 2.2 10 .8 6.6.8S.9 2.3.9 4.5z" fill="#fff"/></mask><mask id="h" height="14.3" maskUnits="userSpaceOnUse" width="13.1" x=".4" y=".4"><path d="M10.8.6v9c0 1.9-1.8 3.4-3.9 3.4-2.2.1-3.9-1.4-3.9-3.2s1.7-3.2 4-3.2h1.4V5.2H6.6c-3.4 0-6 2-6 4.6 0 2.7 2.8 4.7 6.3 4.7 3.6 0 6.3-2.1 6.3-4.8v-9h-2.4z" fill="#fff"/></mask><g fill="#667984"><path d="M8.9 7.8V13h2.4V7.8C11.3 5.5 9.1 4 5.8 4S.2 5.6.2 7.8V13h2.4V7.8c0-1.4 1.3-2.4 3.1-2.4 2.4 0 3.2 1.2 3.2 2.4"/><path d="M0 9.7h11.5V.2H0z" mask="url(#a)" transform="translate(0 3.58)"/><path d="M19.9 12.7c-2.3 0-4.2-1.5-4.2-3.5s1.8-3.6 4.2-3.6c1.9 0 3.4.8 4 2.2l.3.8h-5.5v1.1h7.7v-.3c0-1.1-.3-2-1-2.8-1.1-1.3-3.1-2.1-5.5-2.1-3.7 0-6.6 2.2-6.6 4.8s3 4.8 6.6 4.8c2.6 0 4.8-.9 5.8-2.4H23c-.6.6-1.7 1-3.1 1"/><path d="M.1 10.6h13.6V.6H.1z" mask="url(#b)" transform="translate(13 3.58)"/><path d="M40.4 9h-2.5v.4c0 1.1-1 2.3-3.2 2.3s-3.1-1.2-3.1-2.3V5.5h8.7V4.2h-8.7V1.7H29v7.6c0 2.2 2.3 3.7 5.7 3.7s5.7-1.5 5.7-3.7z"/><path d="M-.2 11.7h11.8V-.1H-.2z" mask="url(#c)" transform="translate(29 1.58)"/><path d="M54.6 8.9c0-2.7-2.7-4.8-6.3-4.8S42 6.2 42 8.9s2.5 4.5 6.1 4.5h1.7V12h-1.5c-2.4 0-4-1.3-4-3.1 0-1.9 1.8-3.4 3.9-3.4 2.2 0 3.9 1.5 3.9 3.4v4.5c0 2.2-1.5 3.5-4 3.5-1 0-2.3-.2-2.9-1h-2.8c.8 1.5 3 2.5 5.7 2.5 3.8 0 6.4-2 6.4-4.9V8.9"/><path d="M.7 15h13.1V.3H.7z" mask="url(#d)" transform="translate(41 3.58)"/><path d="M68.4 4.4h-2.5v5.1c0 1.4-1.4 2.3-3.2 2.3-2.3 0-3.2-1.2-3.2-2.3V4.4H57v5c0 2.3 2.2 3.8 5.6 3.8s5.7-1.5 5.7-3.8v-5"/><path d="M-.2 9.8h11.8V.6H-.2z" mask="url(#e)" transform="translate(57 3.58)"/><path d="M77.3 13.1h1.9v-1.3h-1.5c-2.4 0-4.2-1.3-4.2-3s1.8-3.1 4.1-3.1c2.2 0 4.1 1.4 4.1 3.2v4.2h2.5V8.9c0-2.6-2.8-4.5-6.5-4.5s-6.6 1.9-6.6 4.4c-.1 2.4 2.7 4.3 6.2 4.3"/><path d="M-.2 9.8h13.6V.6H-.2z" mask="url(#f)" transform="translate(71 3.58)"/><path d="M94.7 8h2.5c-.1-2.2-2.3-3.7-5.6-3.7-3.4 0-5.7 1.5-5.7 3.7v5h2.5V8.1c0-1.4 1.4-2.3 3.2-2.3 2.3-.1 3.1 1.1 3.1 2.2"/><path d="M.6 9.8h11.9V.6H.6z" mask="url(#g)" transform="translate(85 3.58)"/><path d="M111.2.2h-2.4v9c0 1.9-1.8 3.4-3.9 3.4-2.2 0-3.9-1.5-3.9-3.3s1.7-3.2 4-3.2h1.4V4.8h-1.9c-3.4 0-6 2-6 4.6 0 2.7 2.8 4.7 6.3 4.7 3.6 0 6.3-2.1 6.3-4.8V.2"/><path d="M.4 14.7h13V.4H.4z" mask="url(#h)" transform="translate(98 -.42)"/></g></svg>